<?xml version="1.0" encoding="UTF-8"?>
<svg version="1.1" xmlns="http://www.w3.org/2000/svg" width="500" height="160">
<path d="M0 0 C8.25 0 16.5 0 25 0 C25 1.65 25 3.3 25 5 C26.65 5 28.3 5 30 5 C30 6.65 30 8.3 30 10 C31.65 10 33.3 10 35 10 C35 11.65 35 13.3 35 15 C36.65 15 38.3 15 40 15 C40 18.3 40 21.6 40 25 C51.55 25 63.1 25 75 25 C75 21.7 75 18.4 75 15 C76.65 15 78.3 15 80 15 C80 13.35 80 11.7 80 10 C81.65 10 83.3 10 85 10 C85 8.35 85 6.7 85 5 C86.65 5 88.3 5 90 5 C90 3.35 90 1.7 90 0 C98.25 0 106.5 0 115 0 C115 1.65 115 3.3 115 5 C116.65 5 118.3 5 120 5 C120 6.65 120 8.3 120 10 C121.65 10 123.3 10 125 10 C125 11.65 125 13.3 125 15 C126.65 15 128.3 15 130 15 C130 23.25 130 31.5 130 40 C128.35 40 126.7 40 125 40 C125 41.65 125 43.3 125 45 C123.35 45 121.7 45 120 45 C120 46.65 120 48.3 120 50 C118.35 50 116.7 50 115 50 C115 51.65 115 53.3 115 55 C111.7 55 108.4 55 105 55 C105 64.9 105 74.8 105 85 C103.35 85 101.7 85 100 85 C100 88.3 100 91.6 100 95 C98.35 95 96.7 95 95 95 C95 96.65 95 98.3 95 100 C93.35 100 91.7 100 90 100 C90 101.65 90 103.3 90 105 C88.35 105 86.7 105 85 105 C85 106.65 85 108.3 85 110 C81.7 110 78.4 110 75 110 C75 111.65 75 113.3 75 115 C63.45 115 51.9 115 40 115 C40 113.35 40 111.7 40 110 C36.7 110 33.4 110 30 110 C30 108.35 30 106.7 30 105 C28.35 105 26.7 105 25 105 C25 103.35 25 101.7 25 100 C23.35 100 21.7 100 20 100 C20 98.35 20 96.7 20 95 C18.35 95 16.7 95 15 95 C15 91.7 15 88.4 15 85 C13.35 85 11.7 85 10 85 C10 75.1 10 65.2 10 55 C6.7 55 3.4 55 0 55 C0 53.35 0 51.7 0 50 C-1.65 50 -3.3 50 -5 50 C-5 48.35 -5 46.7 -5 45 C-6.65 45 -8.3 45 -10 45 C-10 43.35 -10 41.7 -10 40 C-11.65 40 -13.3 40 -15 40 C-15 31.75 -15 23.5 -15 15 C-13.35 15 -11.7 15 -10 15 C-10 13.35 -10 11.7 -10 10 C-8.35 10 -6.7 10 -5 10 C-5 8.35 -5 6.7 -5 5 C-3.35 5 -1.7 5 0 5 C0 3.35 0 1.7 0 0 Z " fill="#07CA00" transform="translate(45,20)"/>
<path d="M0 0 C11.55 0 23.1 0 35 0 C35 1.65 35 3.3 35 5 C38.3 5 41.6 5 45 5 C45 6.65 45 8.3 45 10 C46.65 10 48.3 10 50 10 C50 11.65 50 13.3 50 15 C51.65 15 53.3 15 55 15 C55 16.65 55 18.3 55 20 C56.65 20 58.3 20 60 20 C60 21.65 60 23.3 60 25 C61.65 25 63.3 25 65 25 C65 28.3 65 31.6 65 35 C66.65 35 68.3 35 70 35 C70 48.2 70 61.4 70 75 C68.35 75 66.7 75 65 75 C65 78.3 65 81.6 65 85 C63.35 85 61.7 85 60 85 C60 86.65 60 88.3 60 90 C58.35 90 56.7 90 55 90 C55 91.65 55 93.3 55 95 C53.35 95 51.7 95 50 95 C50 96.65 50 98.3 50 100 C48.35 100 46.7 100 45 100 C45 101.65 45 103.3 45 105 C41.7 105 38.4 105 35 105 C35 106.65 35 108.3 35 110 C23.45 110 11.9 110 0 110 C0 108.35 0 106.7 0 105 C-3.3 105 -6.6 105 -10 105 C-10 103.35 -10 101.7 -10 100 C-11.65 100 -13.3 100 -15 100 C-15 98.35 -15 96.7 -15 95 C-16.65 95 -18.3 95 -20 95 C-20 93.35 -20 91.7 -20 90 C-21.65 90 -23.3 90 -25 90 C-25 88.35 -25 86.7 -25 85 C-26.65 85 -28.3 85 -30 85 C-30 81.7 -30 78.4 -30 75 C-31.65 75 -33.3 75 -35 75 C-35 61.8 -35 48.6 -35 35 C-33.35 35 -31.7 35 -30 35 C-30 31.7 -30 28.4 -30 25 C-28.35 25 -26.7 25 -25 25 C-25 23.35 -25 21.7 -25 20 C-23.35 20 -21.7 20 -20 20 C-20 18.35 -20 16.7 -20 15 C-18.35 15 -16.7 15 -15 15 C-15 13.35 -15 11.7 -15 10 C-13.35 10 -11.7 10 -10 10 C-10 8.35 -10 6.7 -10 5 C-6.7 5 -3.4 5 0 5 C0 3.35 0 1.7 0 0 Z " fill="#0074D9" transform="translate(400,25)"/>
<path d="M0 0 C8.25 0 16.5 0 25 0 C25 1.65 25 3.3 25 5 C23.35 5 21.7 5 20 5 C20 8.3 20 11.6 20 15 C18.35 15 16.7 15 15 15 C15 16.65 15 18.3 15 20 C13.35 20 11.7 20 10 20 C10 23.3 10 26.6 10 30 C11.65 30 13.3 30 15 30 C15 28.35 15 26.7 15 25 C21.6 25 28.2 25 35 25 C35 23.35 35 21.7 35 20 C38.3 20 41.6 20 45 20 C45 26.6 45 33.2 45 40 C43.35 40 41.7 40 40 40 C40 43.3 40 46.6 40 50 C38.35 50 36.7 50 35 50 C35 51.65 35 53.3 35 55 C31.7 55 28.4 55 25 55 C25 56.65 25 58.3 25 60 C16.75 60 8.5 60 0 60 C0 58.35 0 56.7 0 55 C-3.3 55 -6.6 55 -10 55 C-10 53.35 -10 51.7 -10 50 C-11.65 50 -13.3 50 -15 50 C-15 46.7 -15 43.4 -15 40 C-16.65 40 -18.3 40 -20 40 C-20 33.4 -20 26.8 -20 20 C-18.35 20 -16.7 20 -15 20 C-15 16.7 -15 13.4 -15 10 C-13.35 10 -11.7 10 -10 10 C-10 8.35 -10 6.7 -10 5 C-6.7 5 -3.4 5 0 5 C0 3.35 0 1.7 0 0 Z " fill="#54D900" transform="translate(405,50)"/>
<path d="M0 0 C11.55 0 23.1 0 35 0 C35 34.65 35 69.3 35 105 C33.35 105 31.7 105 30 105 C30 81.9 30 58.8 30 35 C21.75 35 13.5 35 5 35 C5 58.1 5 81.2 5 105 C3.35 105 1.7 105 0 105 C0 70.35 0 35.7 0 0 Z M5 5 C5 13.25 5 21.5 5 30 C13.25 30 21.5 30 30 30 C30 21.75 30 13.5 30 5 C21.75 5 13.5 5 5 5 Z " fill="#FFFFFF" transform="translate(275,25)"/>
<path d="M0 0 C11.55 0 23.1 0 35 0 C35 1.65 35 3.3 35 5 C25.1 5 15.2 5 5 5 C5 19.85 5 34.7 5 50 C14.9 50 24.8 50 35 50 C35 51.65 35 53.3 35 55 C25.1 55 15.2 55 5 55 C5 69.85 5 84.7 5 100 C14.9 100 24.8 100 35 100 C35 101.65 35 103.3 35 105 C23.45 105 11.9 105 0 105 C0 70.35 0 35.7 0 0 Z " fill="#FFFFFF" transform="translate(230,25)"/>
<path d="M0 0 C11.55 0 23.1 0 35 0 C35 11.55 35 23.1 35 35 C25.1 35 15.2 35 5 35 C5 58.1 5 81.2 5 105 C3.35 105 1.7 105 0 105 C0 70.35 0 35.7 0 0 Z M5 5 C5 13.25 5 21.5 5 30 C13.25 30 21.5 30 30 30 C30 21.75 30 13.5 30 5 C21.75 5 13.5 5 5 5 Z " fill="#FFFFFF" transform="translate(320,25)"/>
<path d="M0 0 C4.95 0 9.9 0 15 0 C15 1.65 15 3.3 15 5 C16.65 5 18.3 5 20 5 C20 6.65 20 8.3 20 10 C21.65 10 23.3 10 25 10 C25 14.95 25 19.9 25 25 C23.35 25 21.7 25 20 25 C20 26.65 20 28.3 20 30 C18.35 30 16.7 30 15 30 C15 31.65 15 33.3 15 35 C10.05 35 5.1 35 0 35 C0 33.35 0 31.7 0 30 C-1.65 30 -3.3 30 -5 30 C-5 28.35 -5 26.7 -5 25 C-6.65 25 -8.3 25 -10 25 C-10 20.05 -10 15.1 -10 10 C-8.35 10 -6.7 10 -5 10 C-5 8.35 -5 6.7 -5 5 C-3.35 5 -1.7 5 0 5 C0 3.35 0 1.7 0 0 Z " fill="#FFFFFF" transform="translate(140,30)"/>
<path d="M0 0 C4.95 0 9.9 0 15 0 C15 1.65 15 3.3 15 5 C16.65 5 18.3 5 20 5 C20 6.65 20 8.3 20 10 C21.65 10 23.3 10 25 10 C25 14.95 25 19.9 25 25 C23.35 25 21.7 25 20 25 C20 26.65 20 28.3 20 30 C18.35 30 16.7 30 15 30 C15 31.65 15 33.3 15 35 C10.05 35 5.1 35 0 35 C0 33.35 0 31.7 0 30 C-1.65 30 -3.3 30 -5 30 C-5 28.35 -5 26.7 -5 25 C-6.65 25 -8.3 25 -10 25 C-10 20.05 -10 15.1 -10 10 C-8.35 10 -6.7 10 -5 10 C-5 8.35 -5 6.7 -5 5 C-3.35 5 -1.7 5 0 5 C0 3.35 0 1.7 0 0 Z " fill="#FFFFFF" transform="translate(50,30)"/>
<path d="M0 0 C1.65 0 3.3 0 5 0 C5 33 5 66 5 100 C14.9 100 24.8 100 35 100 C35 101.65 35 103.3 35 105 C23.45 105 11.9 105 0 105 C0 70.35 0 35.7 0 0 Z " fill="#FFFFFF" transform="translate(185,25)"/>
<path d="M0 0 C3.3 0 6.6 0 10 0 C10 1.65 10 3.3 10 5 C13.3 5 16.6 5 20 5 C20 3.35 20 1.7 20 0 C28.25 0 36.5 0 45 0 C45 1.65 45 3.3 45 5 C48.3 5 51.6 5 55 5 C55 3.35 55 1.7 55 0 C58.3 0 61.6 0 65 0 C65 1.65 65 3.3 65 5 C63.35 5 61.7 5 60 5 C60 6.65 60 8.3 60 10 C53.4 10 46.8 10 40 10 C40 8.35 40 6.7 40 5 C35.05 5 30.1 5 25 5 C25 6.65 25 8.3 25 10 C18.4 10 11.8 10 5 10 C5 8.35 5 6.7 5 5 C3.35 5 1.7 5 0 5 C0 3.35 0 1.7 0 0 Z " fill="#000000" transform="translate(70,100)"/>
<path d="M0 0 C1.65 0 3.3 0 5 0 C5 3.3 5 6.6 5 10 C3.35 10 1.7 10 0 10 C0 13.3 0 16.6 0 20 C-1.65 20 -3.3 20 -5 20 C-5 21.65 -5 23.3 -5 25 C-8.3 25 -11.6 25 -15 25 C-15 26.65 -15 28.3 -15 30 C-18.3 30 -21.6 30 -25 30 C-25 28.35 -25 26.7 -25 25 C-23.35 25 -21.7 25 -20 25 C-20 23.35 -20 21.7 -20 20 C-18.35 20 -16.7 20 -15 20 C-15 18.35 -15 16.7 -15 15 C-13.35 15 -11.7 15 -10 15 C-10 13.35 -10 11.7 -10 10 C-8.35 10 -6.7 10 -5 10 C-5 8.35 -5 6.7 -5 5 C-3.35 5 -1.7 5 0 5 C0 3.35 0 1.7 0 0 Z " fill="#54D900" transform="translate(445,80)"/>
<path d="M0 0 C3.3 0 6.6 0 10 0 C10 1.65 10 3.3 10 5 C8.35 5 6.7 5 5 5 C5 6.65 5 8.3 5 10 C3.35 10 1.7 10 0 10 C0 11.65 0 13.3 0 15 C-1.65 15 -3.3 15 -5 15 C-5 16.65 -5 18.3 -5 20 C-6.65 20 -8.3 20 -10 20 C-10 21.65 -10 23.3 -10 25 C-11.65 25 -13.3 25 -15 25 C-15 26.65 -15 28.3 -15 30 C-18.3 30 -21.6 30 -25 30 C-25 28.35 -25 26.7 -25 25 C-23.35 25 -21.7 25 -20 25 C-20 23.35 -20 21.7 -20 20 C-18.35 20 -16.7 20 -15 20 C-15 18.35 -15 16.7 -15 15 C-13.35 15 -11.7 15 -10 15 C-10 13.35 -10 11.7 -10 10 C-8.35 10 -6.7 10 -5 10 C-5 8.35 -5 6.7 -5 5 C-3.35 5 -1.7 5 0 5 C0 3.35 0 1.7 0 0 Z " fill="#54D900" transform="translate(420,75)"/>
<path d="M0 0 C4.95 0 9.9 0 15 0 C15 4.95 15 9.9 15 15 C10.05 15 5.1 15 0 15 C0 10.05 0 5.1 0 0 Z " fill="#000000" transform="translate(140,40)"/>
<path d="M0 0 C4.95 0 9.9 0 15 0 C15 4.95 15 9.9 15 15 C10.05 15 5.1 15 0 15 C0 10.05 0 5.1 0 0 Z " fill="#000000" transform="translate(50,40)"/>
<path d="M0 0 C3.3 0 6.6 0 10 0 C10 1.65 10 3.3 10 5 C8.35 5 6.7 5 5 5 C5 6.65 5 8.3 5 10 C3.35 10 1.7 10 0 10 C0 11.65 0 13.3 0 15 C-1.65 15 -3.3 15 -5 15 C-5 11.7 -5 8.4 -5 5 C-3.35 5 -1.7 5 0 5 C0 3.35 0 1.7 0 0 Z " fill="#54D900" transform="translate(395,55)"/>
<path d="M0 0 C1.65 0 3.3 0 5 0 C5 4.95 5 9.9 5 15 C3.35 15 1.7 15 0 15 C0 10.05 0 5.1 0 0 Z " fill="#FF3E00" transform="translate(145,85)"/>
<path d="M0 0 C1.65 0 3.3 0 5 0 C5 4.95 5 9.9 5 15 C3.35 15 1.7 15 0 15 C0 10.05 0 5.1 0 0 Z " fill="#FF3E00" transform="translate(55,85)"/>
<path d="M0 0 C3.3 0 6.6 0 10 0 C10 1.65 10 3.3 10 5 C8.35 5 6.7 5 5 5 C5 6.65 5 8.3 5 10 C3.35 10 1.7 10 0 10 C0 6.7 0 3.4 0 0 Z " fill="#46AA07" transform="translate(385,70)"/>
<path d="M0 0 C3.3 0 6.6 0 10 0 C10 1.65 10 3.3 10 5 C8.35 5 6.7 5 5 5 C5 6.65 5 8.3 5 10 C3.35 10 1.7 10 0 10 C0 6.7 0 3.4 0 0 Z " fill="#46AA07" transform="translate(405,50)"/>
<path d="M0 0 C1.65 0 3.3 0 5 0 C5 1.65 5 3.3 5 5 C3.35 5 1.7 5 0 5 C0 3.35 0 1.7 0 0 Z " fill="#46AA07" transform="translate(415,105)"/>
<path d="M0 0 C1.65 0 3.3 0 5 0 C5 1.65 5 3.3 5 5 C3.35 5 1.7 5 0 5 C0 3.35 0 1.7 0 0 Z " fill="#46AA07" transform="translate(420,100)"/>
<path d="M0 0 C1.65 0 3.3 0 5 0 C5 1.65 5 3.3 5 5 C3.35 5 1.7 5 0 5 C0 3.35 0 1.7 0 0 Z " fill="#46AA07" transform="translate(405,100)"/>
<path d="M0 0 C1.65 0 3.3 0 5 0 C5 1.65 5 3.3 5 5 C3.35 5 1.7 5 0 5 C0 3.35 0 1.7 0 0 Z " fill="#46AA07" transform="translate(425,95)"/>
<path d="M0 0 C1.65 0 3.3 0 5 0 C5 1.65 5 3.3 5 5 C3.35 5 1.7 5 0 5 C0 3.35 0 1.7 0 0 Z " fill="#46AA07" transform="translate(410,95)"/>
<path d="M0 0 C1.65 0 3.3 0 5 0 C5 1.65 5 3.3 5 5 C3.35 5 1.7 5 0 5 C0 3.35 0 1.7 0 0 Z " fill="#46AA07" transform="translate(395,95)"/>
<path d="M0 0 C1.65 0 3.3 0 5 0 C5 1.65 5 3.3 5 5 C3.35 5 1.7 5 0 5 C0 3.35 0 1.7 0 0 Z " fill="#46AA07" transform="translate(430,90)"/>
<path d="M0 0 C1.65 0 3.3 0 5 0 C5 1.65 5 3.3 5 5 C3.35 5 1.7 5 0 5 C0 3.35 0 1.7 0 0 Z " fill="#46AA07" transform="translate(415,90)"/>
<path d="M0 0 C1.65 0 3.3 0 5 0 C5 1.65 5 3.3 5 5 C3.35 5 1.7 5 0 5 C0 3.35 0 1.7 0 0 Z " fill="#46AA07" transform="translate(400,90)"/>
<path d="M0 0 C1.65 0 3.3 0 5 0 C5 1.65 5 3.3 5 5 C3.35 5 1.7 5 0 5 C0 3.35 0 1.7 0 0 Z " fill="#46AA07" transform="translate(435,85)"/>
<path d="M0 0 C1.65 0 3.3 0 5 0 C5 1.65 5 3.3 5 5 C3.35 5 1.7 5 0 5 C0 3.35 0 1.7 0 0 Z " fill="#46AA07" transform="translate(420,85)"/>
<path d="M0 0 C1.65 0 3.3 0 5 0 C5 1.65 5 3.3 5 5 C3.35 5 1.7 5 0 5 C0 3.35 0 1.7 0 0 Z " fill="#46AA07" transform="translate(405,85)"/>
<path d="M0 0 C1.65 0 3.3 0 5 0 C5 1.65 5 3.3 5 5 C3.35 5 1.7 5 0 5 C0 3.35 0 1.7 0 0 Z " fill="#46AA07" transform="translate(390,85)"/>
<path d="M0 0 C1.65 0 3.3 0 5 0 C5 1.65 5 3.3 5 5 C3.35 5 1.7 5 0 5 C0 3.35 0 1.7 0 0 Z " fill="#46AA07" transform="translate(440,80)"/>
<path d="M0 0 C1.65 0 3.3 0 5 0 C5 1.65 5 3.3 5 5 C3.35 5 1.7 5 0 5 C0 3.35 0 1.7 0 0 Z " fill="#46AA07" transform="translate(425,80)"/>
<path d="M0 0 C1.65 0 3.3 0 5 0 C5 1.65 5 3.3 5 5 C3.35 5 1.7 5 0 5 C0 3.35 0 1.7 0 0 Z " fill="#46AA07" transform="translate(410,80)"/>
<path d="M0 0 C1.65 0 3.3 0 5 0 C5 1.65 5 3.3 5 5 C3.35 5 1.7 5 0 5 C0 3.35 0 1.7 0 0 Z " fill="#46AA07" transform="translate(395,80)"/>
<path d="M0 0 C1.65 0 3.3 0 5 0 C5 1.65 5 3.3 5 5 C3.35 5 1.7 5 0 5 C0 3.35 0 1.7 0 0 Z " fill="#46AA07" transform="translate(445,75)"/>
<path d="M0 0 C1.65 0 3.3 0 5 0 C5 1.65 5 3.3 5 5 C3.35 5 1.7 5 0 5 C0 3.35 0 1.7 0 0 Z " fill="#46AA07" transform="translate(430,75)"/>
<path d="M0 0 C1.65 0 3.3 0 5 0 C5 1.65 5 3.3 5 5 C3.35 5 1.7 5 0 5 C0 3.35 0 1.7 0 0 Z " fill="#46AA07" transform="translate(400,75)"/>
<path d="M0 0 C1.65 0 3.3 0 5 0 C5 1.65 5 3.3 5 5 C3.35 5 1.7 5 0 5 C0 3.35 0 1.7 0 0 Z " fill="#46AA07" transform="translate(385,75)"/>
<path d="M0 0 C1.65 0 3.3 0 5 0 C5 1.65 5 3.3 5 5 C3.35 5 1.7 5 0 5 C0 3.35 0 1.7 0 0 Z " fill="#46AA07" transform="translate(405,70)"/>
<path d="M0 0 C1.65 0 3.3 0 5 0 C5 1.65 5 3.3 5 5 C3.35 5 1.7 5 0 5 C0 3.35 0 1.7 0 0 Z " fill="#54D900" transform="translate(385,70)"/>
<path d="M0 0 C1.65 0 3.3 0 5 0 C5 1.65 5 3.3 5 5 C3.35 5 1.7 5 0 5 C0 3.35 0 1.7 0 0 Z " fill="#54D900" transform="translate(415,65)"/>
<path d="M0 0 C1.65 0 3.3 0 5 0 C5 1.65 5 3.3 5 5 C3.35 5 1.7 5 0 5 C0 3.35 0 1.7 0 0 Z " fill="#46AA07" transform="translate(410,65)"/>
<path d="M0 0 C1.65 0 3.3 0 5 0 C5 1.65 5 3.3 5 5 C3.35 5 1.7 5 0 5 C0 3.35 0 1.7 0 0 Z " fill="#46AA07" transform="translate(395,65)"/>
<path d="M0 0 C1.65 0 3.3 0 5 0 C5 1.65 5 3.3 5 5 C3.35 5 1.7 5 0 5 C0 3.35 0 1.7 0 0 Z " fill="#46AA07" transform="translate(415,60)"/>
<path d="M0 0 C1.65 0 3.3 0 5 0 C5 1.65 5 3.3 5 5 C3.35 5 1.7 5 0 5 C0 3.35 0 1.7 0 0 Z " fill="#46AA07" transform="translate(400,60)"/>
<path d="M0 0 C1.65 0 3.3 0 5 0 C5 1.65 5 3.3 5 5 C3.35 5 1.7 5 0 5 C0 3.35 0 1.7 0 0 Z " fill="#46AA07" transform="translate(420,55)"/>
<path d="M0 0 C1.65 0 3.3 0 5 0 C5 1.65 5 3.3 5 5 C3.35 5 1.7 5 0 5 C0 3.35 0 1.7 0 0 Z " fill="#46AA07" transform="translate(405,55)"/>
<path d="M0 0 C1.65 0 3.3 0 5 0 C5 1.65 5 3.3 5 5 C3.35 5 1.7 5 0 5 C0 3.35 0 1.7 0 0 Z " fill="#46AA07" transform="translate(425,50)"/>
<path d="M0 0 C1.65 0 3.3 0 5 0 C5 1.65 5 3.3 5 5 C3.35 5 1.7 5 0 5 C0 3.35 0 1.7 0 0 Z " fill="#54D900" transform="translate(405,50)"/>
</svg>
